<svg xmlns="http://www.w3.org/2000/svg"  viewBox="0 0 48 48" width="50px" height="50px"><path fill="#f44336" d="M38.8,26.5c0-2.3-1.9-4.2-4.3-4.2c-3.4-0.1-6.9-0.2-10.5-0.2c-3.6,0-7.1,0.1-10.5,0.2c-2.4,0-4.3,1.9-4.3,4.2 C9.1,28.3,9,30.2,9,32.1c0,1.9,0.1,3.7,0.2,5.6c0,2.3,1.9,4.2,4.3,4.2c3.4,0.1,6.9,0.2,10.5,0.2c3.6,0,7.1-0.1,10.5-0.2 c2.4,0,4.3-1.9,4.3-4.2c0.1-1.9,0.2-3.7,0.2-5.6C39,30.2,38.9,28.3,38.8,26.5z"/><path fill="#fff" d="M17.8,25.3v1.9c0,0.1-0.1,0.2-0.2,0.2h-1.9v11c0,0.1-0.1,0.2-0.2,0.2h-2c-0.1,0-0.2-0.1-0.2-0.2v-11h-1.9 c-0.1,0-0.2-0.1-0.2-0.2v-1.9c0-0.1,0.1-0.2,0.2-0.2h6.3C17.7,25,17.8,25.1,17.8,25.3z"/><path fill="#fff" d="M23,38.4c0,0.1-0.1,0.2-0.2,0.2H21c-0.1,0-0.2-0.1-0.2-0.2v-0.5c-0.2,0.2-0.5,0.4-0.7,0.6 c-0.4,0.2-0.8,0.3-1.2,0.3c-0.5,0-0.9-0.2-1.1-0.5c-0.2-0.3-0.4-0.8-0.4-1.4v-8.1c0-0.1,0.1-0.2,0.2-0.2h1.8 c0.1,0,0.2,0.1,0.2,0.2v7.4c0,0.2,0,0.3,0.1,0.4c0,0,0,0.1,0.2,0.1c0,0,0.2,0,0.4-0.2c0.2-0.1,0.3-0.3,0.5-0.4v-7.3 c0-0.1,0.1-0.2,0.2-0.2h1.8c0.1,0,0.2,0.1,0.2,0.2L23,38.4L23,38.4z"/><path fill="#fff" d="M29.5,29.1c-0.3-0.5-0.8-0.7-1.5-0.7c-0.3,0-0.6,0.1-0.9,0.3c-0.2,0.1-0.3,0.2-0.5,0.3v-3.7 c0-0.1-0.1-0.2-0.2-0.2h-1.8c-0.1,0-0.2,0.1-0.2,0.2v13.1c0,0.1,0.1,0.2,0.2,0.2h1.8c0.1,0,0.2-0.1,0.2-0.2v-0.2 c0.2,0.1,0.3,0.2,0.5,0.3c0.3,0.2,0.7,0.2,1,0.2c0.6,0,1.1-0.2,1.4-0.6c0.3-0.4,0.5-1,0.5-1.7V31C30,30.2,29.8,29.5,29.5,29.1z M27.7,36.1c0,0.3-0.1,0.5-0.1,0.5c0,0-0.1,0.1-0.3,0.1c-0.1,0-0.2,0-0.4-0.1c-0.1,0-0.2-0.1-0.3-0.2v-5.9 c0.1-0.1,0.2-0.2,0.3-0.2c0.3-0.2,0.6-0.1,0.7,0.1c0.1,0.1,0.2,0.4,0.2,0.6V36.1z"/><path fill="#fff" d="M36.5,34c0.1,0,0.2-0.1,0.2-0.2v-2.5c0-1-0.3-1.7-0.7-2.3c-0.5-0.5-1.2-0.8-2.1-0.8c-0.9,0-1.6,0.3-2.1,0.9 c-0.5,0.6-0.8,1.3-0.8,2.2v4.4c0,1,0.3,1.8,0.8,2.3c0.5,0.6,1.2,0.9,2.1,0.9c1,0,1.7-0.3,2.2-0.8c0.5-0.5,0.7-1.3,0.7-2.4v-0.7 c0-0.1-0.1-0.2-0.2-0.2h-1.9c-0.1,0-0.2,0.1-0.2,0.2v0.7c0,0.7-0.1,0.9-0.1,1c-0.1,0.1-0.2,0.2-0.5,0.2c-0.3,0-0.4-0.1-0.4-0.2 c-0.1-0.1-0.2-0.4-0.2-0.9V34H36.5z M33.3,31.3c0-0.5,0.1-0.7,0.1-0.8c0.1-0.1,0.2-0.2,0.5-0.2c0.2,0,0.4,0.1,0.4,0.2 c0.1,0.1,0.2,0.3,0.2,0.8V32h-1.2V31.3z"/><g><path fill="#455a64" d="M14.5,6h2.1l1.4,5.5h0.1L19.5,6h2.1l-2.5,8v6h-2.1v-5.7L14.5,6z M21.5,11.9c0-0.8,0.3-1.4,0.8-1.9 c0.5-0.5,1.2-0.7,2-0.7c0.8,0,1.4,0.2,1.9,0.7c0.5,0.5,0.7,1.1,0.7,1.9v5.2c0,0.9-0.2,1.5-0.7,2c-0.5,0.5-1.2,0.7-2,0.7 c-0.8,0-1.5-0.3-2-0.8c-0.5-0.5-0.7-1.2-0.7-2.1L21.5,11.9L21.5,11.9L21.5,11.9z M23.5,17.4c0,0.3,0.1,0.5,0.2,0.6 c0.1,0.1,0.3,0.2,0.6,0.2c0.3,0,0.5-0.1,0.6-0.2c0.1-0.2,0.2-0.4,0.2-0.6v-5.5c0-0.2-0.1-0.4-0.2-0.5c-0.2-0.1-0.4-0.2-0.6-0.2 c-0.2,0-0.4,0.1-0.6,0.2c-0.1,0.1-0.2,0.3-0.2,0.5C23.5,11.8,23.5,17.4,23.5,17.4z M33.9,9.6V20H32v-1.3c-0.3,0.4-0.7,0.7-1.1,0.9 c-0.4,0.2-0.7,0.3-1.1,0.3c-0.4,0-0.8-0.1-1-0.5c-0.2-0.3-0.3-0.8-0.3-1.4V9.6h1.9v7.9c0,0.2,0,0.4,0.1,0.5 c0.1,0.1,0.2,0.2,0.4,0.2c0.1,0,0.3-0.1,0.5-0.2c0.2-0.1,0.4-0.3,0.6-0.5V9.6H33.9z"/></g></svg>